# xmcd CD database file generated by Grip 3.3.1
# 
# Track frame offsets:
#       182
#       44132
#       71357
#       94157
#       128807
#       161507
#       181982
#       213407
#       250607
#       269207
#       280307
#       289232
#       297407
#       305357
#       310682
#       327482
#       342932
# 
# Disc length: 4699 seconds
# 
# Revision: 4
# Processed by: cddbd v1.5.2PL0 Copyright (c) Steve Scherf et al.
# Submitted via: Grip 3.3.1
# 
DISCID=11125911
DTITLE=Ton Koopman and various artists - Haydn Complete Harpsichord Conc
DTITLE=ertos CD1
DYEAR=1995
DGENRE=Classical
TTITLE0=Ton Koopman (harpsichord) and Musica Antiqua Amsterdam - Concerto f
TTITLE0=or Harpsichord and Strings No 3 in F Hob XVIII 3 - 1 Allegro (Caden
TTITLE0=za Koopman)
TTITLE1=2 Largo cantabile (Cadenza Koopman)
TTITLE2=3 Presto
TTITLE3=Ton Koopman (harpsichord), and Amsterdam Baroque Orchestra - Haydn 
TTITLE3=Concerto for Harpsichord and Strings No 4 in G Hob XVIII 4 - 1 Alle
TTITLE3=gro (Cadenza Koopman)
TTITLE4=2 Adagio cantabile (Cadenza Koopman)
TTITLE5=3 Rondo (Presto)
TTITLE6=Haydn Concerto for Harpsichord and Strings No 6 in F Hob XVIII 6 - 
TTITLE6=1 Allegro moderato
TTITLE7=2 Largo
TTITLE8=3 Presto
TTITLE9=Ton Koopman (harpsichord), Reinhard Goebel (violin), Alda Stuurop
TTITLE9=(violin), Charles Medlam (cello) - Divertimento Harpsichord and St
TTITLE9=rings in C Hob XIV 7 - 1 Allegro moderato
TTITLE10=2 Menuet
TTITLE11=3 Finale (Presto)
TTITLE12=Divertimento Harpsichord and Strings in C Hob XIV C 2 - 1 Allegro m
TTITLE12=oderato
TTITLE13=2 Menuet
TTITLE14=Concerto (Divertimento) Harpsichord and Strings in G Hob XIV 13 - 1
TTITLE14=Allegro moderato
TTITLE15=2 Adagio
TTITLE16=3 Finale (Presto)
EXTD=YEAR: 1996
EXTT0=
EXTT1=
EXTT2=
EXTT3=
EXTT4=
EXTT5=
EXTT6=
EXTT7=
EXTT8=
EXTT9=
EXTT10=
EXTT11=
EXTT12=
EXTT13=
EXTT14=
EXTT15=
EXTT16=
PLAYORDER=
